<svg width="171" height="38" viewBox="0 0 171 38" fill="none" xmlns="http://www.w3.org/2000/svg">
<path d="M51.0659 27.6755C49.4672 27.6755 47.9976 27.3041 46.6573 26.5613C45.3331 25.8184 44.2753 24.7849 43.484 23.4607C42.7089 22.1204 42.3213 20.6185 42.3213 18.9552C42.3213 17.2919 42.7089 15.7981 43.484 14.4739C44.2753 13.1498 45.3331 12.1162 46.6573 11.3734C47.9976 10.6305 49.4672 10.2591 51.0659 10.2591C52.6646 10.2591 54.1261 10.6305 55.4503 11.3734C56.7906 12.1162 57.8403 13.1498 58.5993 14.4739C59.3744 15.7981 59.762 17.2919 59.762 18.9552C59.762 20.6185 59.3744 22.1204 58.5993 23.4607C57.8241 24.7849 56.7745 25.8184 55.4503 26.5613C54.1261 27.3041 52.6646 27.6755 51.0659 27.6755ZM51.0659 23.8967C52.4224 23.8967 53.5043 23.4446 54.3118 22.5402C55.1354 21.6359 55.5472 20.4409 55.5472 18.9552C55.5472 17.4534 55.1354 16.2584 54.3118 15.3702C53.5043 14.4659 52.4224 14.0137 51.0659 14.0137C49.6932 14.0137 48.5951 14.4578 47.7715 15.346C46.9641 16.2342 46.5604 17.4372 46.5604 18.9552C46.5604 20.4571 46.9641 21.6601 47.7715 22.5645C48.5951 23.4526 49.6932 23.8967 51.0659 23.8967ZM67.4085 15.9031C67.8123 15.2733 68.3694 14.7646 69.0799 14.3771C69.7905 13.9895 70.6221 13.7957 71.5749 13.7957C72.6892 13.7957 73.6985 14.0783 74.6028 14.6435C75.5071 15.2087 76.2177 16.0162 76.7344 17.0658C77.2673 18.1155 77.5338 19.3347 77.5338 20.7235C77.5338 22.1123 77.2673 23.3396 76.7344 24.4054C76.2177 25.4551 75.5071 26.2706 74.6028 26.852C73.6985 27.4172 72.6892 27.6998 71.5749 27.6998C70.6383 27.6998 69.8066 27.506 69.0799 27.1184C68.3694 26.7308 67.8123 26.2302 67.4085 25.6166V33.9493H63.2664V13.9895H67.4085V15.9031ZM73.319 20.7235C73.319 19.69 73.0283 18.8826 72.4469 18.3012C71.8817 17.7037 71.1793 17.4049 70.3395 17.4049C69.516 17.4049 68.8135 17.7037 68.2321 18.3012C67.6669 18.8987 67.3843 19.7142 67.3843 20.7477C67.3843 21.7813 67.6669 22.5968 68.2321 23.1943C68.8135 23.7918 69.516 24.0905 70.3395 24.0905C71.1631 24.0905 71.8656 23.7918 72.4469 23.1943C73.0283 22.5806 73.319 21.757 73.319 20.7235ZM93.6482 20.5297C93.6482 20.9173 93.624 21.321 93.5756 21.7409H84.2012C84.2658 22.5806 84.5323 23.2266 85.0006 23.6787C85.485 24.1147 86.0745 24.3328 86.7689 24.3328C87.8024 24.3328 88.521 23.8967 88.9247 23.0247H93.3333C93.1073 23.9129 92.6955 24.7122 92.098 25.4228C91.5166 26.1333 90.7818 26.6905 89.8937 27.0942C89.0055 27.4979 88.0123 27.6998 86.9142 27.6998C85.59 27.6998 84.4112 27.4172 83.3776 26.852C82.3441 26.2868 81.5367 25.4793 80.9553 24.4296C80.374 23.38 80.0833 22.1527 80.0833 20.7477C80.0833 19.3428 80.3659 18.1155 80.9311 17.0658C81.5125 16.0162 82.3199 15.2087 83.3534 14.6435C84.3869 14.0783 85.5739 13.7957 86.9142 13.7957C88.2223 13.7957 89.385 14.0702 90.4023 14.6193C91.4197 15.1683 92.211 15.9516 92.7762 16.9689C93.3576 17.9863 93.6482 19.1732 93.6482 20.5297ZM89.4092 19.4397C89.4092 18.7291 89.167 18.1639 88.6825 17.7441C88.198 17.3242 87.5925 17.1143 86.8658 17.1143C86.1714 17.1143 85.5819 17.3161 85.0975 17.7198C84.6292 18.1236 84.3385 18.6968 84.2254 19.4397H89.4092ZM105.269 13.8441C106.852 13.8441 108.111 14.3609 109.048 15.3944C110.001 16.4118 110.477 17.8167 110.477 19.6092V27.506H106.359V20.1664C106.359 19.262 106.125 18.5596 105.657 18.059C105.189 17.5584 104.559 17.3081 103.767 17.3081C102.976 17.3081 102.346 17.5584 101.878 18.059C101.41 18.5596 101.176 19.262 101.176 20.1664V27.506H97.0334V13.9895H101.176V15.782C101.595 15.1845 102.161 14.7162 102.871 14.3771C103.582 14.0218 104.381 13.8441 105.269 13.8441ZM118.698 9.58088V27.506H114.556V9.58088H118.698ZM129.052 27.6998C127.728 27.6998 126.533 27.4172 125.467 26.852C124.418 26.2868 123.586 25.4793 122.972 24.4296C122.375 23.38 122.076 22.1527 122.076 20.7477C122.076 19.3589 122.383 18.1397 122.996 17.09C123.61 16.0242 124.45 15.2087 125.516 14.6435C126.581 14.0783 127.776 13.7957 129.101 13.7957C130.425 13.7957 131.62 14.0783 132.686 14.6435C133.752 15.2087 134.591 16.0242 135.205 17.09C135.819 18.1397 136.125 19.3589 136.125 20.7477C136.125 22.1365 135.81 23.3638 135.181 24.4296C134.567 25.4793 133.719 26.2868 132.637 26.852C131.571 27.4172 130.376 27.6998 129.052 27.6998ZM129.052 24.1147C129.844 24.1147 130.514 23.8241 131.063 23.2427C131.628 22.6614 131.911 21.8297 131.911 20.7477C131.911 19.6658 131.636 18.8341 131.087 18.2528C130.554 17.6714 129.892 17.3807 129.101 17.3807C128.293 17.3807 127.623 17.6714 127.09 18.2528C126.557 18.818 126.291 19.6496 126.291 20.7477C126.291 21.8297 126.549 22.6614 127.066 23.2427C127.599 23.8241 128.261 24.1147 129.052 24.1147ZM144.658 13.7957C145.611 13.7957 146.443 13.9895 147.153 14.3771C147.88 14.7646 148.437 15.2733 148.825 15.9031V13.9895H152.967V27.4818C152.967 28.7252 152.716 29.8475 152.216 30.8488C151.731 31.8661 150.98 32.6736 149.963 33.2711C148.962 33.8686 147.71 34.1673 146.208 34.1673C144.206 34.1673 142.583 33.6909 141.34 32.7382C140.096 31.8015 139.386 30.5258 139.208 28.9109H143.302C143.431 29.4277 143.738 29.8314 144.222 30.1221C144.707 30.4289 145.304 30.5823 146.015 30.5823C146.871 30.5823 147.549 30.332 148.049 29.8314C148.566 29.3469 148.825 28.5637 148.825 27.4818V25.5681C148.421 26.1979 147.864 26.7147 147.153 27.1184C146.443 27.506 145.611 27.6998 144.658 27.6998C143.544 27.6998 142.535 27.4172 141.63 26.852C140.726 26.2706 140.007 25.4551 139.474 24.4054C138.958 23.3396 138.699 22.1123 138.699 20.7235C138.699 19.3347 138.958 18.1155 139.474 17.0658C140.007 16.0162 140.726 15.2087 141.63 14.6435C142.535 14.0783 143.544 13.7957 144.658 13.7957ZM148.825 20.7477C148.825 19.7142 148.534 18.8987 147.953 18.3012C147.387 17.7037 146.693 17.4049 145.869 17.4049C145.046 17.4049 144.343 17.7037 143.762 18.3012C143.197 18.8826 142.914 19.69 142.914 20.7235C142.914 21.757 143.197 22.5806 143.762 23.1943C144.343 23.7918 145.046 24.0905 145.869 24.0905C146.693 24.0905 147.387 23.7918 147.953 23.1943C148.534 22.5968 148.825 21.7813 148.825 20.7477ZM163.316 27.6998C161.992 27.6998 160.797 27.4172 159.731 26.852C158.681 26.2868 157.85 25.4793 157.236 24.4296C156.639 23.38 156.34 22.1527 156.34 20.7477C156.34 19.3589 156.647 18.1397 157.26 17.09C157.874 16.0242 158.714 15.2087 159.779 14.6435C160.845 14.0783 162.04 13.7957 163.364 13.7957C164.689 13.7957 165.884 14.0783 166.949 14.6435C168.015 15.2087 168.855 16.0242 169.469 17.09C170.082 18.1397 170.389 19.3589 170.389 20.7477C170.389 22.1365 170.074 23.3638 169.444 24.4296C168.831 25.4793 167.983 26.2868 166.901 26.852C165.835 27.4172 164.64 27.6998 163.316 27.6998ZM163.316 24.1147C164.107 24.1147 164.777 23.8241 165.327 23.2427C165.892 22.6614 166.174 21.8297 166.174 20.7477C166.174 19.6658 165.9 18.8341 165.351 18.2528C164.818 17.6714 164.156 17.3807 163.364 17.3807C162.557 17.3807 161.887 17.6714 161.354 18.2528C160.821 18.818 160.555 19.6496 160.555 20.7477C160.555 21.8297 160.813 22.6614 161.33 23.2427C161.863 23.8241 162.525 24.1147 163.316 24.1147Z" fill="#080066"/>
<mask id="mask0_228_2101" style="mask-type:alpha" maskUnits="userSpaceOnUse" x="2" y="3" width="33" height="32">
<path d="M18.1594 34.68C27.0839 34.68 34.3187 27.8031 34.3187 19.32C34.3187 10.8369 27.0839 3.95996 18.1594 3.95996C9.23479 3.95996 2 10.8369 2 19.32C2 27.8031 9.23479 34.68 18.1594 34.68Z" fill="#C4C4C4"/>
</mask>
<g mask="url(#mask0_228_2101)">
<path d="M15.4941 13.0477C22.3592 10.4112 25.676 2.98386 22.9023 -3.54171C20.1286 -10.0673 12.3147 -13.22 5.44955 -10.5835C-1.41563 -7.947 -4.73242 -0.519667 -1.95871 6.00591C0.815007 12.5315 8.62887 15.6842 15.4941 13.0477Z" fill="#4A3AFF"/>
<path d="M30.8708 49.2228C37.7359 46.5862 41.0527 39.1589 38.279 32.6333C35.5053 26.1078 27.6914 22.955 20.8263 25.5915C13.9611 28.228 10.6443 35.6554 13.418 42.181C16.1917 48.7065 24.0056 51.8593 30.8708 49.2228Z" fill="#4A3AFF"/>
<path d="M4.15348 38.4433C11.0187 35.8068 14.3354 28.3795 11.5617 21.8539C8.78802 15.3283 0.974155 12.1756 -5.89103 14.8121C-12.7562 17.4486 -16.073 24.876 -13.2993 31.4015C-10.5256 37.9271 -2.7117 41.0798 4.15348 38.4433Z" fill="#080066"/>
<path d="M41.8583 22.9991C48.7235 20.3626 52.0403 12.9353 49.2666 6.4097C46.4929 -0.115876 38.679 -3.26859 31.8138 -0.632089C24.9486 2.00441 21.6318 9.43175 24.4056 15.9573C27.1793 22.4829 34.9931 25.6356 41.8583 22.9991Z" fill="#080066"/>
</g>
</svg>
